<?xml version="1.0" encoding="UTF-8"?>
<!DOCTYPE svg PUBLIC "-//W3C//DTD SVG 1.1//EN" "http://www.w3.org/Graphics/SVG/1.1/DTD/svg11.dtd">
<svg version="1.1" xmlns="http://www.w3.org/2000/svg" xmlns:xlink="http://www.w3.org/1999/xlink" x="0px" y="0px" width="198.188px" height="24.881px" viewBox="0 0 198.188 24.881" enable-background="new 0 0 198.188 24.881" xml:space="preserve">
	<polygon fill="#FFFFFF" points="116.598,21.653 116.598,17.347 117.093,16.917 126.338,16.917 126.338,14.175 111.685,14.175 111.685,24.804 133.299,24.804 133.299,22.074 117.115,22.074 "/>
	<rect x="111.686" y="8.799" fill="#FFFFFF" width="21.842" height="3.016"/>
	<path fill="#FFFFFF" d="M87.321,11.653h17.599c-0.271-2.236-1.661-2.854-5.183-2.854H87.132c-3.972,0-5.241,0.773-5.241,3.783v8.437 c0,3.011,1.269,3.786,5.241,3.786h12.605c3.574,0,4.945-0.671,5.036-2.99H87.321l-0.518-0.484v-9.346L87.321,11.653z"/>
	<polygon fill="#FFFFFF" points="63.603,11.734 67.929,17.823 67.689,18.414 58.12,18.414 55.678,21.299 69.924,21.299 70.911,21.875 73.121,24.804 78.876,24.804 66.541,8.121 "/>
	<path fill="#FFFFFF" d="M48.084,8.799H30.638l-0.646,0.483v15.522h4.831v-5.823l0.46-0.412h12.802c3.234,0,4.748-0.868,4.748-3.102 v-3.564C52.832,9.669,51.319,8.799,48.084,8.799z M48.084,14.537c0,1.053-0.695,1.271-2.209,1.271h-10.54l-0.512-0.502v-3.322 l0.46-0.424h10.592c1.514,0,2.209,0.216,2.209,1.272V14.537z"/>
	<path fill="#FFFFFF" d="M18.249,15.035H5.447l-0.376-0.416v-0.712v-2.026l0.373-0.292h13.459h3.799l0.236-0.576 c-0.588-1.51-2.109-2.214-4.936-2.214H6.013c-3.972,0-5.241,0.774-5.241,3.783v1.769c0,3.01,1.269,3.786,5.241,3.786h12.774 l0.402,0.352v2.863l-0.327,0.447H4.249v-0.015H0.422c0,0-0.438,0.22-0.421,0.322c0.328,2.103,1.76,2.698,5.192,2.698h13.057 c3.972,0,5.279-0.775,5.279-3.785v-2.204C23.528,15.808,22.221,15.035,18.249,15.035z"/>
	<g>
		<path fill="#849199" d="M198.071,0.015C198.058,0.011,198.049,0,198.035,0c-0.021,0-0.037,0.015-0.056,0.023 c-37.215,3.747-54.707,19.93-58.83,23.911l0.549,0.858h6.503c16.906-16.991,39.745-22.634,51.822-24.489 c0.005,0,0.007,0.004,0.012,0.004c0.01,0,0.016-0.009,0.025-0.01c0.071-0.014,0.128-0.068,0.128-0.143 C198.188,0.083,198.136,0.033,198.071,0.015z"/>
		<path fill="#FFFFFF" d="M140.083,8.732l-0.392,0.743l7.981,5.817c1.511-0.877,3.158-1.762,4.948-2.638l-5.352-3.922H140.083z"/>
		<path fill="#FFFFFF" d="M157.825,16.462c-1.319,0.97-2.667,2.014-4.117,3.229l7.015,5.113h7.272l0.303-0.676L157.825,16.462z"/>
	</g>
</svg>