<?xml version="1.0" encoding="utf-8"?>
<!-- Generator: Adobe Illustrator 22.1.0, SVG Export Plug-In . SVG Version: 6.00 Build 0)  -->
<svg version="1.1" id="Layer_1" xmlns="http://www.w3.org/2000/svg" xmlns:xlink="http://www.w3.org/1999/xlink" x="0px" y="0px"
	 viewBox="0 0 24 24" style="enable-background:new 0 0 24 24;" xml:space="preserve">
<title>baggage</title>
<g>
	<path d="M3.75,22.499c-2.068,0-3.75-1.682-3.75-3.75v-9c0-2.068,1.682-3.75,3.75-3.75H7.5v-2.25c0-1.241,1.009-2.25,2.25-2.25h4.5
		c1.241,0,2.25,1.009,2.25,2.25v2.25h3.75c2.068,0,3.75,1.682,3.75,3.75v9c0,2.068-1.682,3.75-3.75,3.75H3.75z M20.25,20.999
		c1.241,0,2.25-1.009,2.25-2.25v-9c0-1.241-1.009-2.25-2.25-2.25H18v13.5H20.25z M16.5,20.999v-13.5h-9v13.5H16.5z M3.75,7.499
		c-1.241,0-2.25,1.009-2.25,2.25v9c0,1.241,1.009,2.25,2.25,2.25H6v-13.5H3.75z M15,5.999v-2.25c0-0.414-0.336-0.75-0.75-0.75h-4.5
		C9.336,2.999,9,3.335,9,3.749v2.25H15z"/>
</g>
</svg>
