<?xml version="1.0" encoding="utf-8"?>
<!-- Generator: Adobe Illustrator 22.1.0, SVG Export Plug-In . SVG Version: 6.00 Build 0)  -->
<svg version="1.1" id="Layer_1" xmlns="http://www.w3.org/2000/svg" xmlns:xlink="http://www.w3.org/1999/xlink" x="0px" y="0px"
	 viewBox="0 0 24 24" style="enable-background:new 0 0 24 24;" xml:space="preserve">
<title>seat-regular</title>
<g>
	<path d="M6.749,8.249c-1.861,0-3.375-1.514-3.375-3.375s1.514-3.375,3.375-3.375s3.375,1.514,3.375,3.375S8.61,8.249,6.749,8.249z
		 M6.749,2.999c-1.034,0-1.875,0.841-1.875,1.875s0.841,1.875,1.875,1.875s1.875-0.841,1.875-1.875S7.783,2.999,6.749,2.999z"/>
	<path d="M14.244,24.001c-0.512,0-0.996-0.17-1.399-0.491c-0.466-0.372-0.762-0.903-0.832-1.495l-0.381-3.415
		c-0.051-0.33-0.372-0.6-0.729-0.6H8.769c-1.845,0-3.397-1.315-3.699-3.126L4.53,11.623c-0.1-0.591,0.037-1.187,0.386-1.677
		c0.349-0.49,0.867-0.815,1.458-0.915C6.499,9.01,6.627,8.999,6.753,8.999c0.467,0,0.917,0.144,1.3,0.417
		c0.49,0.348,0.815,0.866,0.915,1.459l0.437,2.621h1.495c2.583,0,4.804,1.911,5.188,4.446c0.008,0.055,0.256,2.25,0.403,3.554
		c0.068,0.597-0.101,1.185-0.475,1.655c-0.375,0.471-0.91,0.767-1.507,0.835C14.414,23.996,14.329,24.001,14.244,24.001z
		 M13.505,21.854c0.021,0.18,0.119,0.359,0.276,0.483c0.134,0.107,0.295,0.164,0.464,0.164c0.028,0,0.056-0.001,0.085-0.005
		c0.005-0.001,0.01-0.001,0.015-0.002c0.194-0.022,0.372-0.121,0.497-0.278c0.124-0.156,0.181-0.353,0.158-0.552
		c-0.127-1.121-0.389-3.436-0.399-3.515c-0.271-1.794-1.856-3.153-3.684-3.153H8.769c-0.368,0-0.679-0.263-0.74-0.626l-0.541-3.246
		c-0.033-0.196-0.141-0.369-0.305-0.485c-0.128-0.091-0.277-0.139-0.432-0.139c-0.042,0-0.085,0.004-0.127,0.011
		c-0.408,0.069-0.684,0.457-0.615,0.865l0.541,3.251c0.181,1.085,1.111,1.873,2.212,1.873h2.138c1.103,0,2.055,0.819,2.221,1.904
		l0.381,3.417C13.503,21.833,13.504,21.845,13.505,21.854z"/>
	<path d="M1.499,24c-0.414,0-0.75-0.336-0.75-0.75s0.336-0.75,0.75-0.75h7.382c0.041,0,0.078-0.015,0.106-0.044
		c0.029-0.029,0.044-0.065,0.044-0.106l-0.136-1.238c-0.007-0.064-0.062-0.113-0.128-0.114c-3.325,0-6.117-2.37-6.657-5.636
		l-0.331-1.987c-0.047-0.282-0.247-0.51-0.521-0.594c-0.191-0.059-0.349-0.188-0.443-0.365c-0.094-0.177-0.114-0.38-0.055-0.571
		c0.097-0.318,0.385-0.531,0.717-0.531c0.074,0,0.148,0.011,0.219,0.033c0.822,0.251,1.421,0.934,1.562,1.782l0.331,1.988
		c0.419,2.539,2.591,4.381,5.163,4.381c0.845,0.001,1.54,0.623,1.633,1.447l0.135,1.221c0.007,0.061,0.01,0.122,0.01,0.183
		c0,0.91-0.741,1.649-1.65,1.649H1.499z"/>
	<path d="M16,10.5c-0.965,0-1.75-0.785-1.75-1.75v-7C14.25,0.785,15.035,0,16,0h5.5c0.965,0,1.75,0.785,1.75,1.75v7
		c0,0.965-0.785,1.75-1.75,1.75H16z M16,1.5c-0.138,0-0.25,0.112-0.25,0.25v7C15.75,8.888,15.862,9,16,9h5.5
		c0.138,0,0.25-0.112,0.25-0.25v-7c0-0.138-0.112-0.25-0.25-0.25H16z"/>
</g>
</svg>
