<?xml version="1.0" encoding="utf-8"?>
<!-- Generator: Adobe Illustrator 22.1.0, SVG Export Plug-In . SVG Version: 6.00 Build 0)  -->
<svg version="1.1" id="Layer_1" xmlns="http://www.w3.org/2000/svg" xmlns:xlink="http://www.w3.org/1999/xlink" x="0px" y="0px"
	 viewBox="0 0 24 24" style="enable-background:new 0 0 24 24;" xml:space="preserve">
<title>space-astronaut</title>
<g>
	<path d="M11.267,14.143c-0.334,0-0.648-0.13-0.884-0.366l-1.414-1.414c-0.487-0.487-0.487-1.28,0-1.768l1.414-1.414
		c0.236-0.236,0.55-0.366,0.884-0.366c0.334,0,0.648,0.13,0.884,0.366l1.414,1.414c0.487,0.487,0.487,1.28,0,1.767l-1.415,1.415
		C11.915,14.013,11.601,14.143,11.267,14.143z M11.267,12.54l1.061-1.061l-1.061-1.061l-1.061,1.061L11.267,12.54z"/>
	<path d="M16.767,23.989c-2.772,0-5.403-1.195-7.218-3.278l-0.042-0.048l-1.423,1.423c-0.424,0.424-0.989,0.658-1.591,0.658
		c-0.602,0-1.167-0.234-1.592-0.658c-0.425-0.425-0.659-0.99-0.659-1.591c0-0.601,0.234-1.166,0.659-1.591l2.652-2.651
		c0.292-0.293,0.292-0.769,0-1.062c-0.141-0.141-0.33-0.219-0.531-0.219c-0.201,0-0.39,0.078-0.531,0.219l-2.651,2.652
		c-0.431,0.408-0.984,0.629-1.564,0.629c-0.624,0-1.203-0.249-1.631-0.701c-0.821-0.866-0.822-2.224-0.002-3.092l3.288-3.288
		c-0.23-0.109-0.441-0.258-0.625-0.443C2.883,10.521,2.649,9.956,2.65,9.354s0.236-1.167,0.662-1.591l3.182-3.179l3.712-3.712
		c0.566-0.567,1.319-0.879,2.12-0.879c0.802,0,1.555,0.312,2.121,0.877l0.363,0.363c0.771-0.478,1.647-0.729,2.555-0.729
		c2.688,0,4.875,2.187,4.875,4.875c0,0.908-0.251,1.785-0.729,2.555c0,0,0.378,0.379,0.382,0.383c0.551,0.555,0.86,1.306,0.86,2.102
		c0,0.801-0.312,1.554-0.879,2.12l-6.894,6.894c-0.425,0.425-0.99,0.659-1.591,0.66c-0.602,0-1.166-0.234-1.591-0.659
		c-0.183-0.183-0.331-0.393-0.44-0.621l-0.786,0.786l0.11,0.126c1.53,1.756,3.748,2.763,6.086,2.763c1.947,0,3.826-0.703,5.292-1.98
		c0.223-0.194,0.438-0.404,0.64-0.623c0.142-0.154,0.343-0.242,0.552-0.242c0.189,0,0.369,0.071,0.508,0.198
		c0.147,0.135,0.233,0.32,0.241,0.52c0.009,0.2-0.062,0.392-0.198,0.539c-0.239,0.26-0.494,0.508-0.758,0.738
		C21.305,23.155,19.076,23.989,16.767,23.989z M7.024,13.472c0.602,0,1.167,0.234,1.591,0.658c0.425,0.425,0.659,0.99,0.659,1.591
		s-0.234,1.166-0.659,1.591l-2.652,2.651c-0.293,0.292-0.293,0.769,0,1.061c0.141,0.142,0.33,0.219,0.531,0.219
		s0.389-0.078,0.53-0.219l7.425-7.425c0.142-0.142,0.33-0.22,0.53-0.22s0.389,0.078,0.53,0.22c0.292,0.292,0.292,0.768,0,1.061
		l-2.652,2.652c-0.292,0.292-0.292,0.769,0,1.061c0.142,0.141,0.33,0.219,0.53,0.219c0.2,0,0.389-0.078,0.531-0.22l3.182-3.182
		c0.877-0.878,0.877-2.305,0-3.182l-6.364-6.364c-0.424-0.424-0.99-0.658-1.591-0.658S7.978,5.221,7.554,5.645L4.372,8.824
		C4.229,8.967,4.15,9.155,4.15,9.356c0,0.201,0.078,0.39,0.219,0.532c0.142,0.142,0.331,0.22,0.532,0.22
		c0.193,0,0.376-0.072,0.515-0.204c0.005-0.005,2.667-2.668,2.667-2.668c0.142-0.142,0.33-0.22,0.53-0.22s0.389,0.078,0.53,0.22
		c0.142,0.141,0.22,0.33,0.22,0.53s-0.078,0.389-0.22,0.53l-2.631,2.631c-0.007,0.008-0.014,0.016-0.021,0.023L1.72,15.724
		c-0.261,0.277-0.258,0.727,0.016,1.016c0.143,0.151,0.336,0.234,0.545,0.234c0.193,0,0.376-0.073,0.515-0.205l2.636-2.638
		C5.857,13.706,6.422,13.472,7.024,13.472z M18.161,10.948c0.582,0.582,0.948,1.326,1.059,2.123l1.592-1.592
		c0.283-0.283,0.439-0.66,0.44-1.06c0-0.401-0.156-0.777-0.439-1.06l-0.28-0.28c-0.005,0.005-0.011,0.009-0.016,0.014
		c-0.015,0.014-0.03,0.027-0.046,0.04c-0.843,0.7-1.908,1.097-3.005,1.12L18.161,10.948z M14.527,3.562
		C14.175,4.107,13.99,4.731,13.99,5.38c0,1.861,1.514,3.375,3.375,3.375c0.648,0,1.271-0.185,1.816-0.536
		c-0.233-1.158-0.766-2.226-1.551-3.103C16.753,4.33,15.685,3.795,14.527,3.562z M15.847,2.367c1.041,0.356,2.003,0.922,2.818,1.662
		c0.017,0.016,0.034,0.032,0.05,0.05c0.74,0.817,1.305,1.78,1.661,2.821c0.238-0.469,0.364-0.99,0.364-1.521
		c0-1.861-1.514-3.375-3.375-3.375C16.835,2.005,16.315,2.131,15.847,2.367z M9.674,3.525c0.802,0.112,1.542,0.478,2.123,1.059
		l0.694,0.694c0.023-1.094,0.417-2.155,1.116-3c0.012-0.017,0.034-0.042,0.059-0.067l-0.278-0.278
		c-0.284-0.284-0.661-0.44-1.061-0.44c-0.401,0-0.777,0.156-1.06,0.439L9.674,3.525z"/>
</g>
</svg>
