<?xml version="1.0" encoding="utf-8"?>
<!-- Generator: Adobe Illustrator 22.1.0, SVG Export Plug-In . SVG Version: 6.00 Build 0)  -->
<svg version="1.1" id="Layer_1" xmlns="http://www.w3.org/2000/svg" xmlns:xlink="http://www.w3.org/1999/xlink" x="0px" y="0px"
	 viewBox="0 0 24 24" style="enable-background:new 0 0 24 24;" xml:space="preserve">
<title>space-rocket-flying</title>
<g>
	<path d="M12.22,22.892c-0.648,0-1.22-0.413-1.424-1.027l-1.152-3.453l-3.99-3.992l-3.454-1.152
		c-0.379-0.126-0.687-0.392-0.866-0.751c-0.18-0.358-0.209-0.765-0.083-1.144c0.073-0.221,0.199-0.424,0.364-0.589l0.231-0.231
		c1.278-1.278,2.968-1.982,4.759-1.982c0.728,0,1.451,0.118,2.149,0.351L9.57,9.194l5.767-5.767c1.319-1.32,3.067-2.16,4.922-2.366
		l2.158-0.24c0.028-0.003,0.056-0.005,0.084-0.005c0.2,0,0.388,0.078,0.53,0.22c0.162,0.162,0.24,0.385,0.215,0.613l-0.24,2.158
		c-0.206,1.855-1.046,3.603-2.366,4.923l-5.768,5.767l0.271,0.816c0.814,2.441,0.189,5.087-1.63,6.907l-0.234,0.233
		c-0.164,0.164-0.366,0.289-0.586,0.362C12.539,22.866,12.38,22.892,12.22,22.892z M12.219,21.392l0.233-0.233
		c1.414-1.415,1.9-3.473,1.267-5.371l-0.033-0.1l-2.528,2.522L12.219,21.392z M10.3,16.946l9.278-9.277
		c1.08-1.08,1.768-2.51,1.936-4.027l0.136-1.226l-1.226,0.136c-1.518,0.169-2.948,0.856-4.028,1.936L7.12,13.765L10.3,16.946z
		 M6.607,10.072c-1.392,0-2.706,0.547-3.7,1.542l-0.232,0.232l3.182,1.061l2.526-2.527L8.28,10.346
		C7.736,10.164,7.173,10.072,6.607,10.072z"/>
	<path d="M1.82,23c-0.2,0-0.389-0.078-0.53-0.22c-0.192-0.191-0.265-0.472-0.192-0.733c0.217-0.771,1.346-4.664,2.314-5.629
		c0.513-0.514,1.197-0.824,1.924-0.872c0.008,0,0.041-0.001,0.049-0.001c0.394,0,0.723,0.308,0.748,0.701
		c0.027,0.412-0.286,0.77-0.699,0.797c-0.364,0.023-0.705,0.178-0.962,0.436c-0.332,0.331-0.94,1.789-1.533,3.651
		c1.861-0.593,3.319-1.2,3.651-1.532c0.28-0.279,0.44-0.665,0.439-1.06c0-0.414,0.336-0.75,0.749-0.751
		c0.414,0,0.75,0.336,0.751,0.749c0.001,0.791-0.32,1.565-0.88,2.123c-0.964,0.964-4.856,2.095-5.627,2.312
		C1.956,22.991,1.888,23,1.82,23z"/>
</g>
</svg>
