<?xml version="1.0" encoding="utf-8"?>
<!-- Generator: Adobe Illustrator 22.1.0, SVG Export Plug-In . SVG Version: 6.00 Build 0)  -->
<svg version="1.1" id="Layer_1" xmlns="http://www.w3.org/2000/svg" xmlns:xlink="http://www.w3.org/1999/xlink" x="0px" y="0px"
	 viewBox="0 0 24 24" style="enable-background:new 0 0 24 24;" xml:space="preserve">
<title>space-ship-1</title>
<g>
	<path d="M15.225,11.775c-1.654,0-3-1.346-3-3s1.346-3,3-3s3,1.346,3,3S16.879,11.775,15.225,11.775z M15.225,7.275
		c-0.827,0-1.5,0.673-1.5,1.5s0.673,1.5,1.5,1.5s1.5-0.673,1.5-1.5S16.052,7.275,15.225,7.275z"/>
	<path d="M15.223,23.998c-0.451,0-0.872-0.178-1.186-0.501L12.89,22.35c-0.275,0.09-0.559,0.135-0.848,0.135
		c-0.735,0-1.426-0.286-1.944-0.804L2.32,13.903c-0.739-0.739-0.989-1.811-0.67-2.792L0.495,9.955
		C0.183,9.653,0.006,9.241,0.001,8.799c-0.006-0.442,0.16-0.86,0.467-1.176l0.224-0.224c0.793-0.79,1.884-1.243,2.992-1.243
		l0.097,0.001c0.02,0,0.044,0.002,0.069,0.005l2.167,0.246l3.842-2.612c1.274-0.905,2.781-1.385,4.354-1.385
		c1.968,0,3.83,0.75,5.244,2.112c2.532,2.627,2.838,6.673,0.738,9.63l-2.603,3.829l0.246,2.168c0.003,0.02,0.004,0.045,0.005,0.07
		c0.021,1.148-0.431,2.273-1.24,3.087l-0.218,0.218C16.069,23.831,15.658,23.998,15.223,23.998L15.223,23.998z M15.105,22.444
		c0.046,0.048,0.095,0.054,0.121,0.054c0.028,0,0.07-0.007,0.106-0.043l0.208-0.208c0.515-0.518,0.808-1.233,0.803-1.965
		l-0.097-0.86l-2.082,2.082L15.105,22.444z M3.38,11.074c-0.487,0.487-0.487,1.281,0,1.768l7.778,7.778
		c0.236,0.235,0.549,0.365,0.884,0.365c0.334,0,0.648-0.13,0.884-0.365l2.829-2.828L6.209,8.246L3.38,11.074z M16.705,16.619
		l2.259-3.323c1.69-2.379,1.45-5.621-0.567-7.714C17.28,4.508,15.793,3.91,14.22,3.91c-1.264,0-2.476,0.386-3.505,1.117L7.38,7.294
		L16.705,16.619z M3.716,7.656c-0.736,0-1.452,0.293-1.965,0.804L1.536,8.675C1.504,8.708,1.5,8.753,1.5,8.777
		c0,0.024,0.007,0.071,0.047,0.11l0.95,0.95L4.58,7.754L3.716,7.656L3.716,7.656z"/>
	<path d="M3.75,24C3.336,24,3,23.663,3,23.25V22.5H2.25c-0.414,0-0.75-0.336-0.75-0.75S1.836,21,2.25,21H3v-0.75
		c0-0.414,0.336-0.75,0.75-0.75s0.75,0.336,0.75,0.75V21h0.75C5.664,21,6,21.336,6,21.75S5.664,22.5,5.25,22.5H4.5v0.75
		C4.5,23.663,4.164,24,3.75,24z"/>
	<path d="M3,4.5c-0.414,0-0.75-0.336-0.75-0.75V3H1.5C1.086,3,0.75,2.663,0.75,2.25S1.086,1.5,1.5,1.5h0.75V0.75
		C2.25,0.336,2.586,0,3,0s0.75,0.336,0.75,0.75V1.5H4.5c0.414,0,0.75,0.336,0.75,0.75S4.914,3,4.5,3H3.75v0.75
		C3.75,4.163,3.414,4.5,3,4.5z"/>
	<path d="M21.75,19.5c-0.414,0-0.75-0.336-0.75-0.75V18h-0.75c-0.414,0-0.75-0.336-0.75-0.75s0.336-0.75,0.75-0.75H21v-0.75
		c0-0.414,0.336-0.75,0.75-0.75s0.75,0.336,0.75,0.75v0.75h0.75c0.414,0,0.75,0.336,0.75,0.75S23.664,18,23.25,18H22.5v0.75
		C22.5,19.163,22.164,19.5,21.75,19.5z"/>
	<path d="M20.625,23.25c-0.044,0-0.088-0.004-0.13-0.011c-0.513-0.06-0.923-0.47-0.983-0.983c-0.007-0.042-0.011-0.086-0.011-0.13
		s0.004-0.088,0.011-0.131c0.06-0.513,0.47-0.923,0.983-0.983C20.537,21.004,20.581,21,20.625,21s0.088,0.004,0.131,0.011
		c0.513,0.06,0.923,0.47,0.983,0.983c0.008,0.042,0.011,0.086,0.011,0.131s-0.004,0.088-0.011,0.131
		c-0.06,0.513-0.47,0.923-0.983,0.983C20.713,23.246,20.669,23.25,20.625,23.25z"/>
	<path d="M1.125,18c-0.044,0-0.088-0.004-0.13-0.011c-0.513-0.06-0.923-0.47-0.983-0.982C0.004,16.963,0,16.919,0,16.875
		s0.004-0.088,0.011-0.131c0.06-0.513,0.47-0.922,0.983-0.983c0.042-0.007,0.086-0.011,0.13-0.011s0.088,0.004,0.13,0.011
		c0.513,0.061,0.923,0.47,0.983,0.983c0.008,0.043,0.011,0.087,0.011,0.131s-0.004,0.088-0.011,0.131
		c-0.06,0.513-0.47,0.922-0.983,0.982C1.213,17.996,1.169,18,1.125,18z"/>
	<path d="M9.375,2.25c-0.557,0-1.035-0.418-1.112-0.972C8.262,1.267,8.261,1.258,8.26,1.25c-0.005-0.03-0.009-0.056-0.01-0.083
		c0-0.012,0.001-0.051,0.002-0.057C8.253,1.083,8.254,1.06,8.257,1.038C8.298,0.517,8.701,0.087,9.22,0.014
		c0,0,0.021-0.003,0.028-0.004C9.278,0.005,9.305,0.001,9.333,0l0.046-0.001c0.549,0,1.022,0.411,1.105,0.958
		c0.003,0.016,0.011,0.077,0.013,0.094C10.498,1.059,10.5,1.089,10.5,1.093c0,0.016-0.001,0.032-0.002,0.047
		c-0.001,0.027-0.002,0.05-0.005,0.071c-0.041,0.521-0.444,0.951-0.963,1.024C9.52,2.237,9.51,2.238,9.503,2.239
		c-0.031,0.005-0.057,0.009-0.085,0.01C9.413,2.249,9.375,2.25,9.375,2.25z"/>
</g>
</svg>
