<?xml version="1.0" encoding="utf-8"?>
<!-- Generator: Adobe Illustrator 22.1.0, SVG Export Plug-In . SVG Version: 6.00 Build 0)  -->
<svg version="1.1" id="Layer_1" xmlns="http://www.w3.org/2000/svg" xmlns:xlink="http://www.w3.org/1999/xlink" x="0px" y="0px"
	 viewBox="0 0 24 24" style="enable-background:new 0 0 24 24;" xml:space="preserve">
<title>space-rocket-launch</title>
<g>
	<path d="M5.25,24c-0.414,0-0.75-0.336-0.75-0.75V19.5h-3v3.75C1.5,23.663,1.164,24,0.75,24S0,23.663,0,23.25V3.75
		c0-0.251,0.125-0.485,0.334-0.624l4.5-3C4.957,0.043,5.101,0,5.25,0C5.373,0,5.495,0.03,5.604,0.088C5.848,0.22,6,0.473,6,0.75V9
		h0.75C7.164,9,7.5,9.336,7.5,9.75S7.164,10.5,6.75,10.5H6V18h2.604c0.651-0.99,1.556-1.793,2.628-2.329L12,15.286V7.881
		c0.001-1.865,0.643-3.693,1.808-5.15l1.356-1.699c0.139-0.175,0.353-0.275,0.586-0.275s0.447,0.1,0.586,0.275l1.356,1.7
		c1.165,1.456,1.806,3.284,1.807,5.149v7.406l0.769,0.385C22.57,16.822,24,19.135,24,21.708v0.328c0,0.23-0.054,0.462-0.157,0.669
		c-0.256,0.513-0.772,0.831-1.345,0.831c-0.205,0-0.404-0.041-0.593-0.123L18.647,22.5h-5.794l-3.259,0.913
		c-0.188,0.082-0.387,0.123-0.593,0.123c-0.573,0-1.088-0.318-1.344-0.829C7.555,22.498,7.5,22.267,7.5,22.036v-0.328
		c0-0.761,0.123-1.502,0.367-2.208H6v3.75C6,23.663,5.664,24,5.25,24z M22.367,21.985c0.046,0.013,0.091,0.03,0.134,0.052
		L22.5,21.708c0-2.001-1.112-3.8-2.902-4.695L19.5,16.964v4.217L22.367,21.985z M9.659,19.158C9.228,19.934,9,20.815,9,21.708v0.328
		c0.042-0.021,0.087-0.038,0.133-0.051L12,21.181v-4.217l-0.097,0.049c-0.935,0.468-1.702,1.192-2.216,2.096
		C9.68,19.122,9.67,19.14,9.659,19.158z M18,21V7.881c-0.001-1.525-0.526-3.021-1.479-4.213L15.75,2.702l-0.771,0.966
		c-0.953,1.192-1.478,2.688-1.479,4.213V21H18z M4.5,18v-3h-3v3H4.5z M4.5,13.5v-3h-3v3H4.5z M4.5,9V2.151l-3,2V9H4.5z"/>
</g>
</svg>
