<?xml version="1.0" encoding="utf-8"?>
<!-- Generator: Adobe Illustrator 22.1.0, SVG Export Plug-In . SVG Version: 6.00 Build 0)  -->
<svg version="1.1" id="Layer_1" xmlns="http://www.w3.org/2000/svg" xmlns:xlink="http://www.w3.org/1999/xlink" x="0px" y="0px"
	 viewBox="0 0 24 24" style="enable-background:new 0 0 24 24;" xml:space="preserve">
<title>space-rocket-earth</title>
<g>
	<path d="M5.327,18.586c-0.187,0-0.366-0.069-0.505-0.195c-2.034-1.851-3.224-4.384-3.353-7.13C1.34,8.514,2.289,5.881,4.14,3.848
		c1.955-2.147,4.724-3.378,7.597-3.378c1.773,0,3.535,0.468,5.097,1.354c0.174,0.099,0.3,0.26,0.353,0.453
		c0.053,0.193,0.028,0.396-0.071,0.57c-0.133,0.234-0.383,0.38-0.653,0.38c-0.129,0-0.257-0.034-0.37-0.098
		c-1.335-0.758-2.841-1.158-4.355-1.158c-2.453,0-4.818,1.052-6.489,2.887C3.668,6.594,2.858,8.844,2.968,11.19
		c0.11,2.347,1.127,4.51,2.865,6.091c0.148,0.135,0.235,0.319,0.244,0.52c0.009,0.2-0.06,0.392-0.195,0.54
		C5.74,18.497,5.538,18.586,5.327,18.586z"/>
	<path d="M2.014,23.316c-0.624,0-1.129-0.187-1.498-0.557c-0.949-0.951-0.676-2.755,0.813-5.362
		c0.133-0.233,0.383-0.378,0.652-0.378c0.13,0,0.258,0.034,0.371,0.098c0.36,0.206,0.485,0.665,0.28,1.023
		c-1.375,2.408-1.227,3.385-1.054,3.558c0.071,0.071,0.223,0.11,0.429,0.11c1.022,0,3.302-0.942,6.636-3.586
		c0.132-0.105,0.298-0.162,0.466-0.162c0.231,0,0.445,0.104,0.588,0.284c0.257,0.323,0.202,0.796-0.121,1.053
		c-1.486,1.178-5.196,3.917-7.558,3.918H2.014z"/>
	<path d="M14.797,22.028c-0.181,0-0.363-0.043-0.526-0.126c-0.279-0.14-0.487-0.381-0.586-0.679l-0.92-2.763l-3.33-3.33L6.671,14.21
		c-0.612-0.202-0.946-0.866-0.743-1.48c0.058-0.174,0.157-0.334,0.286-0.463l1.021-1.021c0.782-0.782,1.817-1.213,2.913-1.213
		c0.446,0,0.889,0.072,1.316,0.215l1.158,0.385l4.645-4.645c0.745-0.745,1.68-1.273,2.702-1.527l2.045-0.514
		c0.127-0.032,0.257-0.048,0.387-0.048c0.733,0,1.369,0.497,1.546,1.209c0.062,0.252,0.063,0.518,0,0.77l-0.513,2.05
		c-0.255,1.022-0.784,1.956-1.529,2.701l-4.644,4.645l0.385,1.159c0.498,1.495,0.116,3.115-0.998,4.229l-1.022,1.022
		c-0.129,0.129-0.289,0.228-0.462,0.285C15.046,22.008,14.922,22.028,14.797,22.028z M14.94,20.245l0.65-0.645
		c0.709-0.709,0.952-1.741,0.635-2.693l-0.149-0.447l-1.798,1.798L14.94,20.245z M13.421,16.994l2.453-2.455
		c0.006-0.006,0.012-0.011,0.018-0.017l4.954-4.955c0.553-0.553,0.945-1.246,1.135-2.003l0.512-2.048
		c0.003-0.014,0.003-0.031,0-0.045c-0.012-0.046-0.055-0.071-0.092-0.071c-0.008,0-0.015,0.001-0.023,0.003l-2.044,0.513
		c-0.76,0.189-1.453,0.581-2.005,1.133l-4.943,4.943c-0.008,0.01-0.016,0.019-0.023,0.026l-2.46,2.458L13.421,16.994z M9.638,13.617
		l1.798-1.798l-0.445-0.148c-0.274-0.091-0.556-0.137-0.84-0.137c-0.698,0-1.356,0.275-1.855,0.773l-0.648,0.648L9.638,13.617z"/>
</g>
</svg>
