<?xml version="1.0" encoding="utf-8"?>
<!-- Generator: Adobe Illustrator 22.1.0, SVG Export Plug-In . SVG Version: 6.00 Build 0)  -->
<svg version="1.1" id="Layer_1" xmlns="http://www.w3.org/2000/svg" xmlns:xlink="http://www.w3.org/1999/xlink" x="0px" y="0px"
	 viewBox="0 0 24 24" style="enable-background:new 0 0 24 24;" xml:space="preserve">
<title>space-rocket-1</title>
<g>
	<path d="M17.221,24.003c-0.106,0-0.214-0.009-0.321-0.026c-0.959-0.157-1.653-0.976-1.651-1.948V21h-1.646l-0.12,1.206
		c-0.101,1.024-0.953,1.796-1.982,1.796c-0.065,0-0.13-0.003-0.196-0.01c-0.944-0.093-1.696-0.845-1.789-1.788L9.396,21H7.75v1.032
		c0.003,0.97-0.691,1.788-1.65,1.946c-0.106,0.017-0.213,0.026-0.319,0.026c-0.968,0-1.785-0.694-1.942-1.65l-0.579-3.48
		c-0.007-0.04-0.01-0.082-0.01-0.123c0-0.233,0.022-0.468,0.065-0.697c0.186-0.984,0.744-1.837,1.571-2.402
		C5.485,15.241,6.18,15.018,6.9,15l0.85-6.797V6.93c0-1.042,0.246-2.086,0.712-3.018l1.473-2.947c0.21-0.418,0.569-0.73,1.013-0.877
		c0.18-0.06,0.366-0.09,0.553-0.09c0.273,0,0.536,0.063,0.783,0.186c0.335,0.168,0.612,0.445,0.78,0.78l1.473,2.944
		c0.466,0.934,0.712,1.979,0.712,3.022v1.281L16.099,15c0.721,0.017,1.416,0.241,2.015,0.65c0.827,0.564,1.385,1.418,1.571,2.402
		c0.043,0.229,0.065,0.464,0.065,0.698c0,0.041-0.003,0.083-0.01,0.124l-0.58,3.48c-0.085,0.517-0.366,0.971-0.793,1.278
		C18.029,23.875,17.633,24.003,17.221,24.003z M5.32,22.108c0.037,0.225,0.235,0.395,0.461,0.395c0.025,0,0.051-0.002,0.076-0.006
		c0.229-0.038,0.394-0.232,0.393-0.463V20.25c0-0.012,0.004-0.082,0.006-0.093l0.455-3.639c-0.35,0.044-0.684,0.171-0.979,0.372
		C5.235,17.228,4.9,17.74,4.789,18.331c-0.022,0.119-0.035,0.24-0.038,0.361L5.32,22.108z M16.75,20.25v1.782
		c-0.001,0.233,0.164,0.428,0.392,0.465c0.026,0.004,0.052,0.006,0.078,0.006c0.097,0,0.191-0.031,0.271-0.088
		c0.101-0.073,0.168-0.181,0.188-0.304l0.57-3.419c-0.003-0.121-0.016-0.242-0.038-0.361c-0.182-0.965-0.968-1.689-1.922-1.812
		l0.455,3.637c0.001,0.012,0.003,0.031,0.003,0.047C16.749,20.219,16.75,20.238,16.75,20.25z M11.501,16.464
		c-0.038,0-0.075,0.002-0.114,0.007c-0.252,0.03-0.477,0.156-0.634,0.356c-0.157,0.199-0.227,0.448-0.197,0.7l0.453,4.529
		c0.023,0.234,0.209,0.42,0.443,0.443c0.019,0.002,0.036,0.003,0.053,0.003c0.248,0,0.461-0.195,0.486-0.445
		c0-0.004,0.451-4.516,0.451-4.516c0.01-0.088,0.01-0.164,0.001-0.24C12.386,16.824,11.981,16.464,11.501,16.464z M15.15,19.5
		L13.837,9H9.162L7.85,19.5h1.397L9.066,17.69c-0.076-0.638,0.104-1.276,0.509-1.791c0.405-0.514,0.985-0.841,1.635-0.918
		c0.097-0.011,0.195-0.017,0.292-0.017c1.239,0,2.285,0.928,2.432,2.159c0.023,0.193,0.023,0.389,0,0.582L13.753,19.5H15.15z
		 M13.75,7.5V6.93c0-0.812-0.191-1.625-0.554-2.351l-1.473-2.943c-0.024-0.047-0.064-0.087-0.111-0.111
		c-0.036-0.018-0.073-0.027-0.112-0.027c-0.027,0-0.053,0.004-0.079,0.013c-0.064,0.021-0.114,0.065-0.145,0.125L9.804,4.582
		C9.442,5.307,9.25,6.119,9.25,6.93V7.5H13.75z"/>
</g>
</svg>
