<?xml version="1.0" encoding="utf-8"?>
<!-- Generator: Adobe Illustrator 22.1.0, SVG Export Plug-In . SVG Version: 6.00 Build 0)  -->
<svg version="1.1" id="Layer_1" xmlns="http://www.w3.org/2000/svg" xmlns:xlink="http://www.w3.org/1999/xlink" x="0px" y="0px"
	 viewBox="0 0 24 24" style="enable-background:new 0 0 24 24;" xml:space="preserve">
<title>space-rocket-2</title>
<g>
	<path d="M22.5,12c-0.414,0-0.75-0.336-0.75-0.75V7.062c0-0.579-0.137-1.159-0.396-1.677L21,4.677l-0.354,0.708
		c-0.259,0.518-0.396,1.098-0.396,1.677V8.25C20.25,8.664,19.914,9,19.5,9s-0.75-0.336-0.75-0.75V7.062
		c0-0.811,0.192-1.622,0.554-2.347L20.161,3c0.094-0.181,0.234-0.322,0.407-0.412c0.134-0.069,0.282-0.105,0.431-0.105
		c0.354,0,0.674,0.195,0.835,0.509l0.861,1.724c0.362,0.725,0.554,1.536,0.554,2.347v4.188C23.25,11.664,22.914,12,22.5,12z"/>
	<path d="M1.5,12c-0.414,0-0.75-0.336-0.75-0.75V7.062c0-0.811,0.192-1.622,0.554-2.347L2.161,3c0.165-0.32,0.486-0.517,0.84-0.517
		c0.148,0,0.296,0.036,0.428,0.104c0.175,0.09,0.315,0.231,0.405,0.406l0.861,1.723C5.058,5.44,5.25,6.251,5.25,7.062V8.25
		C5.25,8.664,4.914,9,4.5,9S3.75,8.664,3.75,8.25V7.062c0-0.579-0.137-1.159-0.396-1.677L3,4.677L2.646,5.385
		C2.387,5.903,2.25,6.483,2.25,7.062v4.188C2.25,11.664,1.914,12,1.5,12z"/>
	<path d="M13.488,8.244c-0.229,0-0.442-0.102-0.584-0.28c-0.032-0.039-0.066-0.077-0.104-0.113
		c-0.235-0.228-0.541-0.353-0.863-0.353l-0.025,0c-0.336,0.005-0.648,0.14-0.88,0.38c-0.143,0.147-0.334,0.228-0.539,0.228
		c-0.196,0-0.381-0.075-0.522-0.211C9.675,7.607,9.668,7.131,9.956,6.834c0.511-0.527,1.197-0.824,1.932-0.836l0.032,0
		c0.725,0,1.409,0.275,1.925,0.775c0.081,0.078,0.157,0.162,0.228,0.25c0.259,0.322,0.208,0.795-0.114,1.055
		C13.826,8.185,13.659,8.244,13.488,8.244z"/>
	<path d="M8.25,24c-0.401,0-0.73-0.314-0.749-0.714L7.463,22.5H3c-1.241,0-2.25-1.009-2.25-2.25v-3.139
		c0-1.081,0.467-2.109,1.28-2.822l4.841-4.236l-0.12-2.518C6.75,6.323,7.153,4.801,7.829,3.447C7.833,3.438,7.838,3.428,7.84,3.424
		c0.114-0.227,0.222-0.425,0.333-0.613C9.245,0.998,10.604,0,12,0c1.396,0,2.755,0.998,3.827,2.811
		c0.11,0.187,0.218,0.385,0.329,0.605c0.007,0.014,0.013,0.026,0.018,0.037C16.848,4.806,17.25,6.318,17.25,7.5l-0.121,2.554
		l4.841,4.236c0.814,0.712,1.28,1.74,1.28,2.822v3.139c0,1.241-1.009,2.25-2.25,2.25h-4.463l-0.038,0.786
		C16.48,23.686,16.151,24,15.75,24H8.25z M15.035,22.5l0.716-15.036C15.75,6.642,15.475,5.543,15.008,4.5H8.992
		C8.525,5.545,8.25,6.651,8.25,7.5l0.715,15h2.285V18c0-0.414,0.336-0.75,0.75-0.75s0.75,0.336,0.75,0.75v4.5H15.035z M21,21
		c0.414,0,0.75-0.336,0.75-0.75v-3.139c0-0.649-0.28-1.266-0.768-1.693l-3.944-3.451L16.608,21H21z M3.018,15.418
		C2.53,15.845,2.25,16.462,2.25,17.111v3.139C2.25,20.664,2.586,21,3,21h4.392l-0.43-9.033L3.018,15.418z M14.16,3
		C13.472,2.05,12.69,1.5,12,1.5c-0.69,0-1.472,0.55-2.16,1.5H14.16z"/>
</g>
</svg>
