<?xml version="1.0" encoding="utf-8"?>
<!-- Generator: Adobe Illustrator 22.1.0, SVG Export Plug-In . SVG Version: 6.00 Build 0)  -->
<svg version="1.1" id="Layer_1" xmlns="http://www.w3.org/2000/svg" xmlns:xlink="http://www.w3.org/1999/xlink" x="0px" y="0px"
	 viewBox="0 0 24 24" style="enable-background:new 0 0 24 24;" xml:space="preserve">
<title>ticket-hold</title>
<g>
	<path d="M10.5,24c-1.654,0-3-1.346-3-3v-0.093l-1.971,0.789C5.44,21.732,5.346,21.75,5.25,21.75c-0.308,0-0.582-0.185-0.696-0.471
		c-0.075-0.186-0.072-0.39,0.007-0.574c0.079-0.184,0.225-0.326,0.411-0.401l2.45-0.981c0.709-0.283,1.307-0.768,1.73-1.402
		l1.645-2.467c0.184-0.276,0.184-0.633,0-0.909L10.77,14.51c-0.131-0.176-0.323-0.289-0.54-0.32c-0.04-0.006-0.08-0.009-0.12-0.009
		c-0.177,0-0.345,0.057-0.489,0.164L7.95,15.6c-0.13,0.098-0.286,0.15-0.449,0.15c-0.235,0-0.46-0.112-0.6-0.3
		c-0.12-0.16-0.171-0.358-0.143-0.556C6.786,14.696,6.89,14.52,7.05,14.4l0.45-0.337v-3.175L4.95,11.98
		c-0.889,0.381-1.589,1.081-1.97,1.97l-1.177,2.745C1.602,17.165,1.5,17.663,1.5,18.174v5.076C1.5,23.664,1.164,24,0.75,24
		S0,23.664,0,23.25v-5.076c0-0.716,0.143-1.412,0.425-2.07l1.177-2.745c0.533-1.245,1.513-2.224,2.758-2.758L7.5,9.255V3
		c0-1.654,1.346-3,3-3h2.25c0.414,0,0.75,0.336,0.75,0.75C13.5,1.991,14.509,3,15.75,3S18,1.991,18,0.75C18,0.336,18.336,0,18.75,0
		H21c1.654,0,3,1.346,3,3v18c0,1.654-1.346,3-3,3H10.5z M9,21c0,0.827,0.673,1.5,1.5,1.5H21c0.827,0,1.5-0.673,1.5-1.5V3
		c0-0.827-0.673-1.5-1.5-1.5h-1.575c-0.35,1.732-1.875,3-3.675,3s-3.324-1.268-3.675-3H10.5C9.673,1.5,9,2.173,9,3v9.966
		c0.339-0.187,0.718-0.285,1.11-0.285c0.111,0,0.224,0.008,0.334,0.024c0.613,0.088,1.156,0.409,1.527,0.906
		c0.025,0.034,0.048,0.066,0.07,0.099c0.523,0.785,0.523,1.795,0.003,2.576l-1.645,2.467C10.026,19.312,9.556,19.787,9,20.167V21z"
		/>
	<path d="M11.25,8.25c-0.414,0-0.75-0.336-0.75-0.75s0.336-0.75,0.75-0.75h9C20.664,6.75,21,7.086,21,7.5s-0.336,0.75-0.75,0.75
		H11.25z"/>
	<path d="M19.5,21c-0.414,0-0.75-0.336-0.75-0.75V10.5c0-0.414,0.336-0.75,0.75-0.75s0.75,0.336,0.75,0.75v9.75
		C20.25,20.664,19.914,21,19.5,21z"/>
	<path d="M14.253,21c-0.741,0-1.452-0.272-2.003-0.766c-0.308-0.276-0.334-0.751-0.058-1.059c0.142-0.158,0.346-0.249,0.559-0.249
		c0.185,0,0.363,0.068,0.5,0.192c0.276,0.247,0.632,0.383,1.002,0.383c0.402,0,0.778-0.157,1.062-0.44
		c0.283-0.283,0.438-0.66,0.438-1.061c0-0.401-0.157-0.777-0.44-1.06c-0.283-0.282-0.659-0.438-1.06-0.438c0,0-0.002,0-0.002,0
		c-0.413,0-0.75-0.336-0.75-0.749c0-0.414,0.335-0.75,0.749-0.751c1.656,0,3.001,1.344,3.003,2.997
		c0.001,0.802-0.31,1.555-0.876,2.122c-0.566,0.567-1.319,0.88-2.12,0.881C14.255,21,14.253,21,14.253,21z"/>
</g>
</svg>
